<svg xmlns="http://www.w3.org/2000/svg" width="104" height="28" viewBox="0 0 104 28" fill="none">
<g clip-path="url(#clip0)">
<path fill-rule="evenodd" clip-rule="evenodd" d="M59.9966 9.57238H64.9496V23.6076H68.7743V9.57238H71.7194H76.6724V23.6076H80.4907V9.57238H84.9975L86.6613 6.17242H74.9385H59.9966V9.57238Z" fill="#33357F"/>
<path fill-rule="evenodd" clip-rule="evenodd" d="M44.207 21.6291C45.3736 19.2152 47.5664 17.3711 50.2182 16.7052L52.3473 11.5957L54.4573 16.654C57.192 17.2687 59.4549 19.1063 60.6534 21.5779H60.6725L54.0111 6.17242H50.8493L44.207 21.6291Z" fill="#33357F"/>
<path fill-rule="evenodd" clip-rule="evenodd" d="M94.8783 20.1884C91.9588 20.1884 89.5938 17.8129 89.5938 14.8804C89.5938 11.9479 91.9588 9.57237 94.8783 9.57237C97.7979 9.57237 100.163 11.9479 100.163 14.8804C100.163 17.8129 97.7979 20.1884 94.8783 20.1884ZM103.994 14.8804C103.994 9.82209 99.9142 5.72421 94.8783 5.72421C89.8424 5.72421 85.7627 9.82209 85.7627 14.8804C85.7627 19.9387 89.8424 24.0366 94.8783 24.0366C99.9142 24.0366 103.994 19.9387 103.994 14.8804Z" fill="#33357F"/>
<path fill-rule="evenodd" clip-rule="evenodd" d="M0.00585938 28L2.96365 26.7066C8.97485 24.4912 14.5462 23.7228 21.0164 24.0622C26.3965 24.3439 30.3997 25.3428 35.3655 27.507L36.3025 28L28.0284 15.2198C22.3933 15.303 15.7892 16.8973 11.2251 19.0807C8.28002 20.483 6.71826 21.6099 4.37243 23.4859C3.35887 24.2991 2.03297 25.6181 1.15328 26.5657C0.911045 26.8283 0.101478 27.7887 0.00585938 28Z" fill="#33357F"/>
<path fill-rule="evenodd" clip-rule="evenodd" d="M4.78662 20.6302L5.36033 20.2397C5.55157 20.0732 5.67906 19.9643 5.86392 19.8043C7.04321 18.8118 7.62967 18.3764 9.0002 17.4288C13.0735 14.6051 18.562 12.5369 23.4895 11.6661C23.9166 11.5893 25.1469 11.4548 25.5103 11.3396L18.1668 0L4.78662 20.6302Z" fill="#33357F"/>
<path fill-rule="evenodd" clip-rule="evenodd" d="M32.5608 14.9508H34.5051V16.1994H35.7417V12.4601H34.5051V9.96296H33.2556V13.7023H31.7512L32.5608 14.9508ZM36.9848 12.4537V13.7023H38.1513V12.4537H36.9848ZM35.7417 11.2051H38.1513V9.96296H35.7417V11.2051ZM29.5329 8.71439H38.1513V0.0192108H29.5329V8.71439ZM36.9848 7.46581H30.7759V1.22936H36.9848V7.46581ZM32.0126 6.21724H35.7417V2.47793H32.0126V6.21724ZM30.7696 9.95655H29.5329V10.2703L30.7696 12.1912V9.95655ZM28.2899 8.35582V6.21724H27.0468V3.7201H28.2899V0.0192108H27.0468V2.47793H25.8038V0.0192108H22.8906L23.6683 1.22936H24.5608V2.59959L25.2875 3.7201H25.8038V4.52047L28.2899 8.35582ZM36.9848 18.6901H34.9831L35.7927 19.9387H36.9848V18.6901ZM34.5051 17.9474V16.1994H33.3704L34.5051 17.9474ZM38.1513 21.1873H36.9848V21.7828L37.4055 22.4359L38.1513 23.5115V21.1873ZM36.9848 21.1873H38.1513V19.9387H36.9848V21.1873ZM36.9848 14.9957V16.2442H38.1513V14.9957H36.9848Z" fill="#2B2A29"/>
<path fill-rule="evenodd" clip-rule="evenodd" d="M52.3284 16.4235C48.7522 16.4747 45.6797 18.5749 44.2199 21.6099L43.9203 22.3014L43.3594 23.6076H47.573C48.3506 21.6163 50.1865 20.3229 52.3284 20.2717C52.373 20.2717 52.679 20.2717 52.73 20.2781C54.8081 20.3869 56.5738 21.6611 57.3324 23.6076H61.5523L60.985 22.3014L60.6918 21.6099C59.2702 18.6517 56.3061 16.5772 52.8511 16.4299C52.7618 16.4235 52.4176 16.4235 52.3284 16.4235Z" fill="#33357F"/>
</g>
<defs>
<clipPath id="clip0">
<rect width="104" height="28" fill="white"/>
</clipPath>
</defs>
</svg>